<?xml version="1.0" encoding="utf-8"?>
<!-- Generator: Adobe Illustrator 24.0.3, SVG Export Plug-In . SVG Version: 6.00 Build 0)  -->
<svg version="1.1" id="Layer_1" xmlns="http://www.w3.org/2000/svg" xmlns:xlink="http://www.w3.org/1999/xlink" x="0px" y="0px"
	 viewBox="0 0 300 52" style="enable-background:new 0 0 300 52;" xml:space="preserve">
<style type="text/css">
	.st0{fill:#FFFFFF;}
</style>
<g>
	<path class="st0" d="M24.4,37.3h4.2v7.1H11.9v-7.1h4.2V14.6h-4.2V7.5h11.9l13.6,21.9V14.6h-4.2V7.5h16.6v7.1h-4.2v29.9H38
		L24.4,22.5V37.3z"/>
	<path class="st0" d="M78.2,38.6H65.7l-2.1,5.8h-9.9L66.8,11h10.3l13.1,33.4h-9.8L78.2,38.6z M71.9,20.9l-3.7,10.4h7.4L71.9,20.9z"
		/>
	<path class="st0" d="M94.5,14.4v-2.6h10.6l11,20.9l11.2-20.9h10v2.6h-4.2v27.4h4.2v2.6h-13.5v-2.6h4.2V21c0-0.2,0.1-0.5,0.1-1.1
		c0-0.6,0-1.2,0.1-1.8c0-0.8,0.1-1.6,0.1-2.5h-0.4l-2,5l-9.6,16.9h-2.8l-9.3-16.9l-2.1-5.5h-0.5V18c0,0.7,0,1.4,0,2c0,0.6,0,1,0,1
		v20.8h4.1v2.6H94.5v-2.6h4.2V14.4H94.5z"/>
	<path class="st0" d="M146.5,44.4V11h20.2v3.9h-15.7v10.3h11.3V29h-11.3v11.5h16.5v3.9H146.5z"/>
	<path class="st0" d="M195.2,44.4h-17.5V12.3h3.7v28.9h13.8V44.4z"/>
	<path class="st0" d="M216.6,29.7v7.6c0,1.5,0.1,2.4,0.3,2.9s0.6,0.8,1.3,1.1c0.7,0.3,1.8,0.4,3.3,0.4c2,0,3.5-0.3,4.5-0.8
		c0.9-0.5,1.8-1.4,2.6-2.6c0.8-1.3,1.3-2.6,1.6-4h2.6l-0.2,10.1h-28.2v-2.5h0.6c1.5,0,2.5-0.3,3-0.9c0.5-0.6,0.7-1.5,0.7-2.9V19.8
		c0-1.4-0.2-2.4-0.7-2.9c-0.5-0.6-1.5-0.8-3-0.8h-0.6v-2.5h26.3l0.5,8h-2.6c-0.5-1.4-1-2.5-1.5-3.3c-0.6-0.8-1.1-1.4-1.7-1.6
		c-0.6-0.2-1.5-0.4-2.9-0.4h-5.8v10.7h2.9c1.4,0,2.3-0.3,2.7-0.8c0.4-0.5,0.7-1.5,0.8-3.1h2.6v10.5h-2.6c0-0.2,0-0.3,0-0.4
		c0-0.9-0.2-1.7-0.6-2.4c-0.4-0.7-1.3-1.1-2.9-1.1H216.6z"/>
	<path class="st0" d="M260.5,18.8l-6.6,3c-0.7-1.4-1.6-3.2-4.1-3.2c-1.5,0-2.6,0.9-2.6,2.2c0,4.4,13.6,4,13.6,13.9
		c0,6-4.3,10.4-11.4,10.4c-7.3,0-10.3-5.3-11.1-7.8L245,34c0.9,1.9,2.7,3.6,4.9,3.6c1.9,0,2.9-0.8,2.9-2.3c0-4.3-13.5-4-13.5-14.4
		c0-5.9,4.2-9.7,10.7-9.7C257,11.2,259.7,16.3,260.5,18.8z"/>
	<path class="st0" d="M270.7,37.5c0.8,1.2,1.8,2.1,3.1,2.7c1.3,0.6,2.6,0.9,3.9,0.9c0.7,0,1.5-0.1,2.3-0.3c0.8-0.2,1.5-0.6,2.1-1
		c0.6-0.5,1.2-1,1.6-1.7c0.4-0.7,0.6-1.5,0.6-2.4c0-1.3-0.4-2.2-1.2-2.9c-0.8-0.7-1.8-1.2-3-1.7c-1.2-0.4-2.5-0.9-3.9-1.3
		c-1.4-0.4-2.7-1-3.9-1.7c-1.2-0.7-2.2-1.7-3-3c-0.8-1.3-1.2-3-1.2-5.1c0-1,0.2-2,0.6-3.1c0.4-1.1,1.1-2.1,2-3
		c0.9-0.9,2.1-1.7,3.5-2.3c1.4-0.6,3.1-0.9,5.1-0.9c1.8,0,3.5,0.2,5.2,0.7c1.6,0.5,3.1,1.5,4.3,3l-3.6,3.3c-0.6-0.9-1.4-1.6-2.4-2.1
		c-1-0.5-2.2-0.8-3.5-0.8c-1.2,0-2.3,0.2-3.1,0.5c-0.8,0.3-1.5,0.7-2,1.3c-0.5,0.5-0.8,1.1-1,1.7c-0.2,0.6-0.3,1.1-0.3,1.6
		c0,1.4,0.4,2.5,1.2,3.2c0.8,0.7,1.8,1.4,3,1.8c1.2,0.5,2.5,0.9,3.9,1.3c1.4,0.4,2.7,0.9,3.9,1.6c1.2,0.7,2.2,1.6,3,2.7
		c0.8,1.1,1.2,2.7,1.2,4.7c0,1.6-0.3,3-0.9,4.3c-0.6,1.3-1.4,2.3-2.4,3.2c-1,0.9-2.2,1.5-3.6,2c-1.4,0.5-2.9,0.7-4.5,0.7
		c-2.1,0-4.1-0.4-6-1.1c-1.9-0.7-3.4-1.9-4.5-3.5L270.7,37.5z"/>
</g>
</svg>
